<svg width="72" height="32" viewBox="0 0 72 32" fill="none" xmlns="http://www.w3.org/2000/svg">
<rect width="72" height="32" fill="#F9FAFB"/>
<path fill-rule="evenodd" clip-rule="evenodd" d="M43.154 22.0234C39.708 24.6085 34.6971 25.9888 30.3885 25.9888C24.3473 25.9888 18.908 23.7194 14.7937 19.9435C14.4705 19.6466 14.7598 19.2422 15.1478 19.4728C19.5883 22.0983 25.0787 23.6766 30.7497 23.6766C34.5747 23.6766 38.7824 22.8726 42.6514 21.2044C43.236 20.9521 43.7244 21.5931 43.1528 22.024M44.5894 20.3558C44.1498 19.7824 41.6782 20.0854 40.56 20.2194C40.2214 20.2616 40.1697 19.9616 40.4745 19.7462C42.447 18.335 45.685 18.7424 46.0635 19.215C46.4419 19.6876 45.9654 22.9873 44.1112 24.5614C43.826 24.8028 43.555 24.6743 43.6816 24.3538C44.0975 23.2975 45.0315 20.9304 44.5894 20.3552" fill="#FF9900"/>
<path fill-rule="evenodd" clip-rule="evenodd" d="M40.6376 9.78533V8.41404C40.6363 8.36812 40.6443 8.32243 40.6611 8.27976C40.6778 8.23709 40.7029 8.19834 40.7349 8.16586C40.7669 8.13338 40.805 8.10786 40.847 8.09086C40.889 8.07386 40.934 8.06574 40.9792 8.06699H47.0227C47.2164 8.06699 47.3721 8.20882 47.3721 8.41404V9.58797C47.3697 9.78473 47.2057 10.0424 46.917 10.4499L43.7859 14.9923C44.9504 14.9633 46.1779 15.1395 47.233 15.7437C47.4707 15.8801 47.5301 16.0799 47.5539 16.2773V17.7409C47.5539 17.9401 47.3364 18.1743 47.1083 18.0535C45.2486 17.0637 42.7788 16.9551 40.7231 18.0638C40.5134 18.1797 40.2936 17.9479 40.2936 17.7487V16.3587C40.2936 16.1354 40.2959 15.7552 40.5158 15.4154L44.1441 10.1294H40.9923C40.7986 10.1294 40.6429 9.99054 40.6429 9.78533M18.5899 18.3427H16.7517C16.5758 18.3294 16.4368 18.1954 16.4231 18.0246V8.43757C16.4231 8.24564 16.5811 8.09354 16.7772 8.09354H18.4919C18.6701 8.10139 18.8127 8.24081 18.8258 8.41343V9.66643H18.8596C19.307 8.45508 20.1477 7.89014 21.2801 7.89014C22.431 7.89014 23.1499 8.45508 23.6674 9.66643C24.113 8.45508 25.123 7.89014 26.2073 7.89014C26.9779 7.89014 27.8209 8.21305 28.3355 8.93853C28.9177 9.74489 28.7989 10.917 28.7989 11.9443L28.7947 17.9956C28.7947 18.1875 28.6367 18.3427 28.4406 18.3427H26.5988C26.4206 18.3294 26.2679 18.1797 26.2679 17.9956V12.9076C26.2679 12.5032 26.3035 11.494 26.2162 11.1108C26.0795 10.4674 25.6678 10.2857 25.1349 10.2857C24.6893 10.2857 24.2247 10.5875 24.0357 11.0715C23.8468 11.5556 23.8652 12.3644 23.8652 12.9082V17.9902C23.8652 18.1821 23.7072 18.3372 23.5111 18.3372H21.6693C21.4833 18.3239 21.3384 18.1743 21.3384 17.9902L21.336 12.9082C21.336 11.8387 21.5095 10.2646 20.203 10.2646C18.8816 10.2646 18.9333 11.7988 18.9333 12.9082V17.9902C18.9333 18.1821 18.7753 18.3372 18.5792 18.3372M52.5755 7.89799C55.3037 7.89799 56.7808 10.2784 56.7808 13.3047C56.7808 16.229 55.1487 18.5485 52.5755 18.5485C49.9019 18.5485 48.4373 16.168 48.4373 13.2021C48.4373 10.2175 49.9144 7.89075 52.5755 7.89075M52.5909 9.8481C51.2363 9.8481 51.1502 11.724 51.1502 12.8931C51.1502 14.0622 51.1323 16.5658 52.5749 16.5658C53.9996 16.5658 54.0673 14.5481 54.0673 13.3186C54.0673 12.5098 54.0335 11.5423 53.794 10.7752C53.5873 10.1076 53.1761 9.8475 52.5915 9.8475M60.3194 18.3427H58.4883C58.31 18.3294 58.1574 18.1797 58.1574 17.9956L58.155 8.40619C58.1704 8.22995 58.3231 8.09354 58.5091 8.09354H60.2142C60.3747 8.10139 60.5066 8.21184 60.5428 8.36153V9.82818H60.5767C61.0912 8.51724 61.8125 7.89195 63.0827 7.89195C63.9145 7.89195 64.7118 8.19374 65.2293 9.02182C65.7046 9.78835 65.7046 11.0788 65.7046 12.0064V18.0421C65.6838 18.2111 65.5311 18.3439 65.3505 18.3439H63.5099C63.3418 18.3306 63.2021 18.205 63.1843 18.0421V12.8351C63.1843 11.7867 63.3031 10.2519 62.0335 10.2519C61.5861 10.2519 61.175 10.5567 60.964 11.0184C60.7056 11.6039 60.6717 12.1875 60.6717 12.8339V17.9968C60.6693 18.1887 60.5089 18.3439 60.3123 18.3439M35.8192 13.7568C35.8192 14.4847 35.837 15.0846 35.4746 15.7377C35.1822 16.2628 34.717 16.5863 34.2019 16.5863C33.4961 16.5863 33.082 16.0401 33.082 15.2331C33.082 13.6409 34.4865 13.3518 35.818 13.3518V13.7562M37.6717 18.3095C37.5499 18.4199 37.3746 18.4278 37.2379 18.3541C36.6278 17.8393 36.5167 17.5997 36.1828 17.109C35.1739 18.1543 34.458 18.467 33.1515 18.467C31.6026 18.467 30.3995 17.4977 30.3995 15.556C30.3995 14.0399 31.2063 13.0078 32.3601 12.5032C33.3583 12.0565 34.7521 11.9781 35.818 11.8543V11.6129C35.818 11.1687 35.8518 10.6436 35.5922 10.2597C35.37 9.9157 34.9404 9.77386 34.5602 9.77386C33.8591 9.77386 33.2353 10.139 33.0832 10.8965C33.0523 11.0655 32.9305 11.2303 32.7623 11.2381L30.9799 11.0438C30.8302 11.0094 30.6621 10.8868 30.7066 10.6514C31.1154 8.45447 33.0713 7.79297 34.818 7.79297C35.7128 7.79297 36.8821 8.03439 37.5879 8.72246C38.4827 9.57107 38.3971 10.7034 38.3971 11.9358V14.8468C38.3971 15.722 38.7536 16.1052 39.0905 16.579C39.2069 16.748 39.233 16.9496 39.0827 17.0758L37.677 18.3215L37.6746 18.3155M11.7134 13.7628C11.7134 14.4907 11.7312 15.0907 11.3688 15.7437C11.0765 16.2688 10.6143 16.5923 10.0962 16.5923C9.39035 16.5923 8.97921 16.0461 8.97921 15.2391C8.97921 13.6469 10.3837 13.3578 11.7122 13.3578V13.7622M13.5659 18.3155C13.4441 18.4259 13.2689 18.4338 13.1322 18.3602C12.522 17.8453 12.4192 17.6057 12.077 17.115C11.0682 18.1604 10.354 18.473 9.04576 18.473C7.49982 18.4736 6.29492 17.5043 6.29492 15.5632C6.29492 14.0471 7.10413 13.015 8.25556 12.5104C9.2537 12.0638 10.6475 11.9853 11.7134 11.8616V11.6202C11.7134 11.1759 11.7473 10.6508 11.4912 10.267C11.2654 9.92294 10.8377 9.78111 10.4592 9.78111C9.75812 9.78111 9.1325 10.1463 8.97387 10.9037C8.94297 11.0727 8.82117 11.2375 8.65601 11.2454L6.87123 11.051C6.72151 11.0166 6.55634 10.8941 6.59793 10.6587C7.00907 8.46172 8.96258 7.80021 10.7093 7.80021C11.6041 7.80021 12.7733 8.04164 13.4792 8.7297C14.3739 9.57831 14.2884 10.7106 14.2884 11.9431V14.8541C14.2884 15.7292 14.6449 16.1125 14.9817 16.5863C15.1006 16.7553 15.1267 16.9569 14.9758 17.083L13.5736 18.3215L13.5677 18.3155" fill="#221F1F"/>
</svg>
