<svg width="670" height="408" viewBox="0 0 670 408" fill="none" xmlns="http://www.w3.org/2000/svg">
<rect width="670" height="408" rx="8" fill="white"/>
<path d="M34 24.14C33.8667 23.9933 33.6733 23.84 33.42 23.68C33.1667 23.5067 32.8667 23.3467 32.52 23.2C32.1733 23.0533 31.8 22.9333 31.4 22.84C31 22.7467 30.5867 22.7 30.16 22.7C29.2267 22.7 28.5333 22.8733 28.08 23.22C27.6267 23.5667 27.4 24.0467 27.4 24.66C27.4 25.1133 27.5267 25.4733 27.78 25.74C28.0333 25.9933 28.42 26.2067 28.94 26.38C29.46 26.5533 30.1133 26.74 30.9 26.94C31.86 27.1667 32.6933 27.44 33.4 27.76C34.1067 28.0667 34.6467 28.48 35.02 29C35.3933 29.52 35.58 30.2067 35.58 31.06C35.58 31.78 35.4467 32.4 35.18 32.92C34.9133 33.44 34.54 33.8667 34.06 34.2C33.58 34.52 33.0267 34.76 32.4 34.92C31.7733 35.0667 31.1 35.14 30.38 35.14C29.6733 35.14 28.9667 35.0667 28.26 34.92C27.5667 34.7733 26.9 34.56 26.26 34.28C25.6333 33.9867 25.0533 33.6333 24.52 33.22L25.54 31.3C25.7133 31.4733 25.96 31.6667 26.28 31.88C26.6133 32.08 26.9933 32.2733 27.42 32.46C27.86 32.6467 28.3333 32.8067 28.84 32.94C29.36 33.06 29.8867 33.12 30.42 33.12C31.3133 33.12 31.9933 32.9667 32.46 32.66C32.94 32.34 33.18 31.8867 33.18 31.3C33.18 30.82 33.0267 30.44 32.72 30.16C32.4133 29.8667 31.9667 29.62 31.38 29.42C30.7933 29.22 30.0933 29.02 29.28 28.82C28.3467 28.5667 27.5667 28.2933 26.94 28C26.3133 27.6933 25.84 27.3067 25.52 26.84C25.2133 26.36 25.06 25.7533 25.06 25.02C25.06 24.0867 25.2867 23.3 25.74 22.66C26.1933 22.0067 26.8067 21.52 27.58 21.2C28.3667 20.8667 29.2467 20.7 30.22 20.7C30.86 20.7 31.4667 20.7733 32.04 20.92C32.6133 21.0533 33.1467 21.24 33.64 21.48C34.1467 21.72 34.6067 21.9933 35.02 22.3L34 24.14ZM36.767 31.94C36.767 31.2733 36.9537 30.6933 37.327 30.2C37.7137 29.6933 38.2404 29.3067 38.907 29.04C39.5737 28.76 40.347 28.62 41.227 28.62C41.6937 28.62 42.167 28.6533 42.647 28.72C43.1404 28.7867 43.5737 28.8933 43.947 29.04V28.38C43.947 27.6467 43.727 27.0733 43.287 26.66C42.847 26.2467 42.2137 26.04 41.387 26.04C40.8004 26.04 40.247 26.1467 39.727 26.36C39.207 26.56 38.6537 26.8467 38.067 27.22L37.327 25.74C38.0204 25.2733 38.7137 24.9267 39.407 24.7C40.1137 24.4733 40.8537 24.36 41.627 24.36C43.027 24.36 44.127 24.7333 44.927 25.48C45.7404 26.2133 46.147 27.26 46.147 28.62V32.52C46.147 32.7733 46.187 32.9533 46.267 33.06C46.3604 33.1667 46.5137 33.2267 46.727 33.24V35C46.527 35.04 46.347 35.0667 46.187 35.08C46.027 35.0933 45.8937 35.1 45.787 35.1C45.3204 35.1 44.967 34.9867 44.727 34.76C44.487 34.5333 44.347 34.2667 44.307 33.96L44.247 33.36C43.7937 33.9467 43.2137 34.4 42.507 34.72C41.8004 35.04 41.087 35.2 40.367 35.2C39.6737 35.2 39.0537 35.06 38.507 34.78C37.9604 34.4867 37.5337 34.0933 37.227 33.6C36.9204 33.1067 36.767 32.5533 36.767 31.94ZM43.427 32.58C43.587 32.4067 43.7137 32.2333 43.807 32.06C43.9004 31.8867 43.947 31.7333 43.947 31.6V30.4C43.5737 30.2533 43.1804 30.1467 42.767 30.08C42.3537 30 41.947 29.96 41.547 29.96C40.747 29.96 40.0937 30.12 39.587 30.44C39.0937 30.76 38.847 31.2 38.847 31.76C38.847 32.0667 38.927 32.36 39.087 32.64C39.2604 32.92 39.5004 33.1467 39.807 33.32C40.127 33.4933 40.5204 33.58 40.987 33.58C41.467 33.58 41.927 33.4867 42.367 33.3C42.807 33.1133 43.1604 32.8733 43.427 32.58ZM48.8361 20.4H51.0361V31.98C51.0361 32.5133 51.1161 32.8533 51.2761 33C51.4361 33.1467 51.6361 33.22 51.8761 33.22C52.1428 33.22 52.3894 33.1933 52.6161 33.14C52.8561 33.0867 53.0628 33.02 53.2361 32.94L53.5561 34.68C53.2361 34.8133 52.8561 34.9267 52.4161 35.02C51.9761 35.1133 51.5828 35.16 51.2361 35.16C50.4894 35.16 49.9028 34.9533 49.4761 34.54C49.0494 34.1133 48.8361 33.5267 48.8361 32.78V20.4ZM59.5717 35.2C58.7584 35.2 58.0184 35.06 57.3517 34.78C56.6984 34.4867 56.1317 34.0933 55.6517 33.6C55.1717 33.0933 54.7984 32.52 54.5317 31.88C54.2784 31.2267 54.1517 30.5333 54.1517 29.8C54.1517 28.8133 54.3784 27.9133 54.8317 27.1C55.2851 26.2733 55.9184 25.6133 56.7317 25.12C57.5451 24.6133 58.4984 24.36 59.5917 24.36C60.6851 24.36 61.6251 24.6133 62.4117 25.12C63.2117 25.6133 63.8317 26.2667 64.2717 27.08C64.7117 27.8933 64.9317 28.7667 64.9317 29.7C64.9317 29.86 64.9251 30.0133 64.9117 30.16C64.8984 30.2933 64.8851 30.4067 64.8717 30.5H56.4917C56.5317 31.1133 56.6984 31.6533 56.9917 32.12C57.2984 32.5733 57.6851 32.9333 58.1517 33.2C58.6184 33.4533 59.1184 33.58 59.6517 33.58C60.2384 33.58 60.7917 33.4333 61.3117 33.14C61.8451 32.8467 62.2051 32.46 62.3917 31.98L64.2717 32.52C64.0451 33.0267 63.6984 33.4867 63.2317 33.9C62.7784 34.3 62.2384 34.62 61.6117 34.86C60.9851 35.0867 60.3051 35.2 59.5717 35.2ZM56.4317 29.04H62.7517C62.7117 28.44 62.5384 27.9133 62.2317 27.46C61.9384 26.9933 61.5584 26.6333 61.0917 26.38C60.6384 26.1133 60.1317 25.98 59.5717 25.98C59.0251 25.98 58.5184 26.1133 58.0517 26.38C57.5984 26.6333 57.2251 26.9933 56.9317 27.46C56.6384 27.9133 56.4717 28.44 56.4317 29.04ZM70.4463 35.2C69.5663 35.2 68.7329 35.06 67.9463 34.78C67.1596 34.4867 66.4863 34.0533 65.9263 33.48L66.7463 32C67.3463 32.5333 67.9463 32.92 68.5463 33.16C69.1596 33.4 69.7663 33.52 70.3663 33.52C70.9796 33.52 71.4796 33.4067 71.8663 33.18C72.2529 32.94 72.4463 32.5933 72.4463 32.14C72.4463 31.8067 72.3463 31.56 72.1463 31.4C71.9463 31.24 71.6529 31.1 71.2663 30.98C70.8929 30.86 70.4396 30.7267 69.9063 30.58C69.1596 30.3533 68.5329 30.12 68.0263 29.88C67.5196 29.6267 67.1396 29.32 66.8863 28.96C66.6329 28.6 66.5063 28.14 66.5063 27.58C66.5063 26.9 66.6796 26.32 67.0263 25.84C67.3729 25.36 67.8529 24.9933 68.4663 24.74C69.0929 24.4867 69.8129 24.36 70.6263 24.36C71.3863 24.36 72.0863 24.48 72.7263 24.72C73.3796 24.9467 73.9529 25.3067 74.4463 25.8L73.5063 27.26C73.0396 26.8333 72.5596 26.52 72.0663 26.32C71.5863 26.12 71.0663 26.02 70.5063 26.02C70.1863 26.02 69.8796 26.06 69.5863 26.14C69.2929 26.2067 69.0463 26.34 68.8463 26.54C68.6596 26.7267 68.5663 26.9933 68.5663 27.34C68.5663 27.62 68.6463 27.8467 68.8063 28.02C68.9663 28.1933 69.2063 28.34 69.5263 28.46C69.8463 28.58 70.2396 28.7133 70.7063 28.86C71.5196 29.1 72.2129 29.34 72.7863 29.58C73.3596 29.8067 73.7996 30.1067 74.1063 30.48C74.4263 30.84 74.5863 31.34 74.5863 31.98C74.5863 32.9933 74.2063 33.7867 73.4463 34.36C72.6996 34.92 71.6996 35.2 70.4463 35.2ZM90.1719 24.14C90.0385 23.9933 89.8452 23.84 89.5919 23.68C89.3385 23.5067 89.0385 23.3467 88.6919 23.2C88.3452 23.0533 87.9719 22.9333 87.5719 22.84C87.1719 22.7467 86.7585 22.7 86.3319 22.7C85.3985 22.7 84.7052 22.8733 84.2519 23.22C83.7985 23.5667 83.5719 24.0467 83.5719 24.66C83.5719 25.1133 83.6985 25.4733 83.9519 25.74C84.2052 25.9933 84.5919 26.2067 85.1119 26.38C85.6319 26.5533 86.2852 26.74 87.0719 26.94C88.0319 27.1667 88.8652 27.44 89.5719 27.76C90.2785 28.0667 90.8185 28.48 91.1919 29C91.5652 29.52 91.7519 30.2067 91.7519 31.06C91.7519 31.78 91.6185 32.4 91.3519 32.92C91.0852 33.44 90.7119 33.8667 90.2319 34.2C89.7519 34.52 89.1985 34.76 88.5719 34.92C87.9452 35.0667 87.2719 35.14 86.5519 35.14C85.8452 35.14 85.1385 35.0667 84.4319 34.92C83.7385 34.7733 83.0719 34.56 82.4319 34.28C81.8052 33.9867 81.2252 33.6333 80.6919 33.22L81.7119 31.3C81.8852 31.4733 82.1319 31.6667 82.4519 31.88C82.7852 32.08 83.1652 32.2733 83.5919 32.46C84.0319 32.6467 84.5052 32.8067 85.0119 32.94C85.5319 33.06 86.0585 33.12 86.5919 33.12C87.4852 33.12 88.1652 32.9667 88.6319 32.66C89.1119 32.34 89.3519 31.8867 89.3519 31.3C89.3519 30.82 89.1985 30.44 88.8919 30.16C88.5852 29.8667 88.1385 29.62 87.5519 29.42C86.9652 29.22 86.2652 29.02 85.4519 28.82C84.5185 28.5667 83.7385 28.2933 83.1119 28C82.4852 27.6933 82.0119 27.3067 81.6919 26.84C81.3852 26.36 81.2319 25.7533 81.2319 25.02C81.2319 24.0867 81.4585 23.3 81.9119 22.66C82.3652 22.0067 82.9785 21.52 83.7519 21.2C84.5385 20.8667 85.4185 20.7 86.3919 20.7C87.0319 20.7 87.6385 20.7733 88.2119 20.92C88.7852 21.0533 89.3185 21.24 89.8119 21.48C90.3185 21.72 90.7785 21.9933 91.1919 22.3L90.1719 24.14ZM99.3236 34.46C99.1369 34.5533 98.9036 34.6533 98.6236 34.76C98.3436 34.8667 98.0236 34.96 97.6636 35.04C97.3169 35.12 96.9569 35.16 96.5836 35.16C96.1303 35.16 95.7103 35.08 95.3236 34.92C94.9369 34.76 94.6236 34.5067 94.3836 34.16C94.1569 33.8 94.0436 33.34 94.0436 32.78V26.24H92.6636V24.54H94.0436V21.1H96.2436V24.54H98.5236V26.24H96.2436V32.08C96.2703 32.44 96.3836 32.7067 96.5836 32.88C96.7969 33.0533 97.0569 33.14 97.3636 33.14C97.6703 33.14 97.9636 33.0867 98.2436 32.98C98.5236 32.8733 98.7303 32.7867 98.8636 32.72L99.3236 34.46ZM100.087 31.94C100.087 31.2733 100.274 30.6933 100.647 30.2C101.034 29.6933 101.561 29.3067 102.227 29.04C102.894 28.76 103.667 28.62 104.547 28.62C105.014 28.62 105.487 28.6533 105.967 28.72C106.461 28.7867 106.894 28.8933 107.267 29.04V28.38C107.267 27.6467 107.047 27.0733 106.607 26.66C106.167 26.2467 105.534 26.04 104.707 26.04C104.121 26.04 103.567 26.1467 103.047 26.36C102.527 26.56 101.974 26.8467 101.387 27.22L100.647 25.74C101.341 25.2733 102.034 24.9267 102.727 24.7C103.434 24.4733 104.174 24.36 104.947 24.36C106.347 24.36 107.447 24.7333 108.247 25.48C109.061 26.2133 109.467 27.26 109.467 28.62V32.52C109.467 32.7733 109.507 32.9533 109.587 33.06C109.681 33.1667 109.834 33.2267 110.047 33.24V35C109.847 35.04 109.667 35.0667 109.507 35.08C109.347 35.0933 109.214 35.1 109.107 35.1C108.641 35.1 108.287 34.9867 108.047 34.76C107.807 34.5333 107.667 34.2667 107.627 33.96L107.567 33.36C107.114 33.9467 106.534 34.4 105.827 34.72C105.121 35.04 104.407 35.2 103.687 35.2C102.994 35.2 102.374 35.06 101.827 34.78C101.281 34.4867 100.854 34.0933 100.547 33.6C100.241 33.1067 100.087 32.5533 100.087 31.94ZM106.747 32.58C106.907 32.4067 107.034 32.2333 107.127 32.06C107.221 31.8867 107.267 31.7333 107.267 31.6V30.4C106.894 30.2533 106.501 30.1467 106.087 30.08C105.674 30 105.267 29.96 104.867 29.96C104.067 29.96 103.414 30.12 102.907 30.44C102.414 30.76 102.167 31.2 102.167 31.76C102.167 32.0667 102.247 32.36 102.407 32.64C102.581 32.92 102.821 33.1467 103.127 33.32C103.447 33.4933 103.841 33.58 104.307 33.58C104.787 33.58 105.247 33.4867 105.687 33.3C106.127 33.1133 106.481 32.8733 106.747 32.58ZM117.878 34.46C117.692 34.5533 117.458 34.6533 117.178 34.76C116.898 34.8667 116.578 34.96 116.218 35.04C115.872 35.12 115.512 35.16 115.138 35.16C114.685 35.16 114.265 35.08 113.878 34.92C113.492 34.76 113.178 34.5067 112.938 34.16C112.712 33.8 112.598 33.34 112.598 32.78V26.24H111.218V24.54H112.598V21.1H114.798V24.54H117.078V26.24H114.798V32.08C114.825 32.44 114.938 32.7067 115.138 32.88C115.352 33.0533 115.612 33.14 115.918 33.14C116.225 33.14 116.518 33.0867 116.798 32.98C117.078 32.8733 117.285 32.7867 117.418 32.72L117.878 34.46ZM119.402 35V24.54H121.602V35H119.402ZM119.402 22.82V20.4H121.602V22.82H119.402ZM127.966 35.2C127.086 35.2 126.252 35.06 125.466 34.78C124.679 34.4867 124.006 34.0533 123.446 33.48L124.266 32C124.866 32.5333 125.466 32.92 126.066 33.16C126.679 33.4 127.286 33.52 127.886 33.52C128.499 33.52 128.999 33.4067 129.386 33.18C129.772 32.94 129.966 32.5933 129.966 32.14C129.966 31.8067 129.866 31.56 129.666 31.4C129.466 31.24 129.172 31.1 128.786 30.98C128.412 30.86 127.959 30.7267 127.426 30.58C126.679 30.3533 126.052 30.12 125.546 29.88C125.039 29.6267 124.659 29.32 124.406 28.96C124.152 28.6 124.026 28.14 124.026 27.58C124.026 26.9 124.199 26.32 124.546 25.84C124.892 25.36 125.372 24.9933 125.986 24.74C126.612 24.4867 127.332 24.36 128.146 24.36C128.906 24.36 129.606 24.48 130.246 24.72C130.899 24.9467 131.472 25.3067 131.966 25.8L131.026 27.26C130.559 26.8333 130.079 26.52 129.586 26.32C129.106 26.12 128.586 26.02 128.026 26.02C127.706 26.02 127.399 26.06 127.106 26.14C126.812 26.2067 126.566 26.34 126.366 26.54C126.179 26.7267 126.086 26.9933 126.086 27.34C126.086 27.62 126.166 27.8467 126.326 28.02C126.486 28.1933 126.726 28.34 127.046 28.46C127.366 28.58 127.759 28.7133 128.226 28.86C129.039 29.1 129.732 29.34 130.306 29.58C130.879 29.8067 131.319 30.1067 131.626 30.48C131.946 30.84 132.106 31.34 132.106 31.98C132.106 32.9933 131.726 33.7867 130.966 34.36C130.219 34.92 129.219 35.2 127.966 35.2ZM139.87 34.46C139.684 34.5533 139.45 34.6533 139.17 34.76C138.89 34.8667 138.57 34.96 138.21 35.04C137.864 35.12 137.504 35.16 137.13 35.16C136.677 35.16 136.257 35.08 135.87 34.92C135.484 34.76 135.17 34.5067 134.93 34.16C134.704 33.8 134.59 33.34 134.59 32.78V26.24H133.21V24.54H134.59V21.1H136.79V24.54H139.07V26.24H136.79V32.08C136.817 32.44 136.93 32.7067 137.13 32.88C137.344 33.0533 137.604 33.14 137.91 33.14C138.217 33.14 138.51 33.0867 138.79 32.98C139.07 32.8733 139.277 32.7867 139.41 32.72L139.87 34.46ZM141.394 35V24.54H143.594V35H141.394ZM141.394 22.82V20.4H143.594V22.82H141.394ZM150.978 35.2C150.165 35.2 149.425 35.06 148.758 34.78C148.105 34.4867 147.538 34.0867 147.058 33.58C146.578 33.0733 146.205 32.4933 145.938 31.84C145.685 31.1867 145.558 30.4933 145.558 29.76C145.558 28.7733 145.778 27.8733 146.218 27.06C146.671 26.2467 147.298 25.5933 148.098 25.1C148.911 24.6067 149.871 24.36 150.978 24.36C152.045 24.36 152.971 24.6 153.758 25.08C154.558 25.5467 155.145 26.1733 155.518 26.96L153.378 27.64C153.138 27.2 152.798 26.86 152.358 26.62C151.931 26.3667 151.458 26.24 150.938 26.24C150.351 26.24 149.818 26.3933 149.338 26.7C148.871 26.9933 148.498 27.4067 148.218 27.94C147.951 28.46 147.818 29.0667 147.818 29.76C147.818 30.4267 147.958 31.0333 148.238 31.58C148.518 32.1133 148.891 32.54 149.358 32.86C149.838 33.1667 150.371 33.32 150.958 33.32C151.318 33.32 151.665 33.26 151.998 33.14C152.345 33.0067 152.645 32.8333 152.898 32.62C153.151 32.3933 153.331 32.1467 153.438 31.88L155.598 32.52C155.371 33.04 155.031 33.5 154.578 33.9C154.138 34.3 153.611 34.62 152.998 34.86C152.398 35.0867 151.725 35.2 150.978 35.2ZM161.13 35.2C160.25 35.2 159.417 35.06 158.63 34.78C157.843 34.4867 157.17 34.0533 156.61 33.48L157.43 32C158.03 32.5333 158.63 32.92 159.23 33.16C159.843 33.4 160.45 33.52 161.05 33.52C161.663 33.52 162.163 33.4067 162.55 33.18C162.937 32.94 163.13 32.5933 163.13 32.14C163.13 31.8067 163.03 31.56 162.83 31.4C162.63 31.24 162.337 31.1 161.95 30.98C161.577 30.86 161.123 30.7267 160.59 30.58C159.843 30.3533 159.217 30.12 158.71 29.88C158.203 29.6267 157.823 29.32 157.57 28.96C157.317 28.6 157.19 28.14 157.19 27.58C157.19 26.9 157.363 26.32 157.71 25.84C158.057 25.36 158.537 24.9933 159.15 24.74C159.777 24.4867 160.497 24.36 161.31 24.36C162.07 24.36 162.77 24.48 163.41 24.72C164.063 24.9467 164.637 25.3067 165.13 25.8L164.19 27.26C163.723 26.8333 163.243 26.52 162.75 26.32C162.27 26.12 161.75 26.02 161.19 26.02C160.87 26.02 160.563 26.06 160.27 26.14C159.977 26.2067 159.73 26.34 159.53 26.54C159.343 26.7267 159.25 26.9933 159.25 27.34C159.25 27.62 159.33 27.8467 159.49 28.02C159.65 28.1933 159.89 28.34 160.21 28.46C160.53 28.58 160.923 28.7133 161.39 28.86C162.203 29.1 162.897 29.34 163.47 29.58C164.043 29.8067 164.483 30.1067 164.79 30.48C165.11 30.84 165.27 31.34 165.27 31.98C165.27 32.9933 164.89 33.7867 164.13 34.36C163.383 34.92 162.383 35.2 161.13 35.2Z" fill="#121212"/>
<path d="M44.332 84V81.828H40.324V80.88L44.656 75.48H45.388V80.868H46.444V81.828H45.388V84H44.332ZM41.428 80.868H44.44V77.1L41.428 80.868ZM47.6938 81.204V80.244H51.2338V81.204H47.6938ZM57.028 83.04V84H52.792V83.04H54.424V76.5C54.36 76.596 54.256 76.704 54.112 76.824C53.968 76.936 53.8 77.048 53.608 77.16C53.424 77.264 53.236 77.352 53.044 77.424C52.852 77.496 52.676 77.532 52.516 77.532V76.548C52.732 76.548 52.948 76.492 53.164 76.38C53.388 76.268 53.592 76.136 53.776 75.984C53.968 75.832 54.12 75.696 54.232 75.576C54.352 75.456 54.416 75.392 54.424 75.384H55.504V83.04H57.028ZM61.4369 84.12C60.8529 84.104 60.3369 83.964 59.8889 83.7C59.4409 83.436 59.0649 83.092 58.7609 82.668C58.4649 82.236 58.2409 81.772 58.0889 81.276C57.9369 80.772 57.8609 80.28 57.8609 79.8C57.8609 79.288 57.9409 78.776 58.1009 78.264C58.2689 77.752 58.5089 77.288 58.8209 76.872C59.1329 76.448 59.5089 76.112 59.9489 75.864C60.3889 75.608 60.8849 75.48 61.4369 75.48C62.0289 75.48 62.5449 75.616 62.9849 75.888C63.4329 76.16 63.8049 76.512 64.1009 76.944C64.4049 77.376 64.6329 77.844 64.7849 78.348C64.9369 78.852 65.0129 79.336 65.0129 79.8C65.0129 80.32 64.9289 80.836 64.7609 81.348C64.6009 81.852 64.3649 82.312 64.0529 82.728C63.7409 83.144 63.3649 83.48 62.9249 83.736C62.4849 83.984 61.9889 84.112 61.4369 84.12ZM58.9529 79.8C58.9689 80.192 59.0289 80.584 59.1329 80.976C59.2369 81.368 59.3929 81.728 59.6009 82.056C59.8089 82.384 60.0649 82.648 60.3689 82.848C60.6729 83.048 61.0289 83.148 61.4369 83.148C61.8609 83.148 62.2289 83.044 62.5409 82.836C62.8529 82.62 63.1089 82.344 63.3089 82.008C63.5169 81.664 63.6689 81.3 63.7649 80.916C63.8689 80.524 63.9209 80.152 63.9209 79.8C63.9209 79.408 63.8649 79.016 63.7529 78.624C63.6489 78.232 63.4889 77.872 63.2729 77.544C63.0569 77.216 62.7969 76.952 62.4929 76.752C62.1889 76.552 61.8369 76.452 61.4369 76.452C61.0129 76.452 60.6449 76.56 60.3329 76.776C60.0209 76.984 59.7609 77.26 59.5529 77.604C59.3529 77.94 59.2009 78.304 59.0969 78.696C59.0009 79.08 58.9529 79.448 58.9529 79.8ZM69.6372 84V75.48H72.5892C73.5012 75.48 74.2612 75.672 74.8692 76.056C75.4852 76.432 75.9452 76.944 76.2492 77.592C76.5532 78.232 76.7052 78.944 76.7052 79.728C76.7052 80.592 76.5372 81.344 76.2012 81.984C75.8652 82.624 75.3892 83.12 74.7732 83.472C74.1572 83.824 73.4292 84 72.5892 84H69.6372ZM75.6132 79.728C75.6132 79.088 75.4932 78.52 75.2532 78.024C75.0212 77.528 74.6812 77.14 74.2332 76.86C73.7852 76.58 73.2372 76.44 72.5892 76.44H70.7172V83.04H72.5892C73.2452 83.04 73.7972 82.896 74.2452 82.608C74.6932 82.312 75.0332 81.916 75.2652 81.42C75.4972 80.916 75.6132 80.352 75.6132 79.728ZM80.831 84.12C80.359 84.12 79.927 84.036 79.535 83.868C79.151 83.692 78.815 83.456 78.527 83.16C78.247 82.856 78.027 82.508 77.867 82.116C77.715 81.724 77.639 81.308 77.639 80.868C77.639 80.276 77.775 79.736 78.047 79.248C78.319 78.76 78.695 78.368 79.175 78.072C79.663 77.776 80.219 77.628 80.843 77.628C81.475 77.628 82.023 77.78 82.487 78.084C82.959 78.38 83.323 78.772 83.579 79.26C83.843 79.74 83.975 80.26 83.975 80.82C83.975 80.9 83.971 80.98 83.963 81.06C83.963 81.132 83.959 81.188 83.951 81.228H78.755C78.787 81.636 78.899 82 79.091 82.32C79.291 82.632 79.547 82.88 79.859 83.064C80.171 83.24 80.507 83.328 80.867 83.328C81.251 83.328 81.611 83.232 81.947 83.04C82.291 82.848 82.527 82.596 82.655 82.284L83.567 82.536C83.431 82.84 83.227 83.112 82.955 83.352C82.691 83.592 82.375 83.78 82.007 83.916C81.647 84.052 81.255 84.12 80.831 84.12ZM78.719 80.496H82.991C82.959 80.088 82.843 79.728 82.643 79.416C82.443 79.104 82.187 78.86 81.875 78.684C81.563 78.508 81.219 78.42 80.843 78.42C80.475 78.42 80.135 78.508 79.823 78.684C79.511 78.86 79.255 79.104 79.055 79.416C78.863 79.728 78.751 80.088 78.719 80.496ZM87.9209 84.12C87.4489 84.12 87.0169 84.036 86.6249 83.868C86.2409 83.692 85.9049 83.452 85.6169 83.148C85.3369 82.844 85.1169 82.496 84.9569 82.104C84.8049 81.712 84.7289 81.296 84.7289 80.856C84.7289 80.264 84.8609 79.724 85.1249 79.236C85.3889 78.748 85.7609 78.36 86.2409 78.072C86.7209 77.776 87.2769 77.628 87.9089 77.628C88.5249 77.628 89.0609 77.768 89.5169 78.048C89.9809 78.32 90.3249 78.688 90.5489 79.152L89.5169 79.476C89.3569 79.18 89.1329 78.952 88.8449 78.792C88.5569 78.624 88.2369 78.54 87.8849 78.54C87.5009 78.54 87.1489 78.64 86.8289 78.84C86.5169 79.04 86.2689 79.316 86.0849 79.668C85.9009 80.012 85.8089 80.408 85.8089 80.856C85.8089 81.296 85.9009 81.696 86.0849 82.056C86.2769 82.408 86.5289 82.688 86.8409 82.896C87.1609 83.104 87.5129 83.208 87.8969 83.208C88.1449 83.208 88.3809 83.164 88.6049 83.076C88.8369 82.988 89.0369 82.872 89.2049 82.728C89.3809 82.576 89.5009 82.412 89.5649 82.236L90.5969 82.548C90.4689 82.852 90.2729 83.124 90.0089 83.364C89.7529 83.596 89.4449 83.78 89.0849 83.916C88.7329 84.052 88.3449 84.12 87.9209 84.12ZM91.8294 84.972L92.0694 83.904H91.7094V82.656H92.7054V83.904L92.3454 84.972H91.8294ZM97.0598 84C97.0598 83.52 97.0998 83.096 97.1798 82.728C97.2678 82.352 97.3918 82.016 97.5518 81.72C97.7198 81.424 97.9198 81.164 98.1518 80.94C98.3838 80.716 98.6478 80.516 98.9438 80.34C99.2558 80.156 99.5758 79.988 99.9038 79.836C100.232 79.684 100.536 79.524 100.816 79.356C101.096 79.188 101.32 78.988 101.488 78.756C101.664 78.516 101.752 78.22 101.752 77.868C101.752 77.588 101.692 77.336 101.572 77.112C101.452 76.88 101.272 76.696 101.032 76.56C100.792 76.424 100.484 76.356 100.108 76.356C99.7318 76.356 99.3918 76.42 99.0878 76.548C98.7918 76.676 98.5358 76.828 98.3198 77.004C98.1038 77.18 97.9318 77.348 97.8038 77.508L97.1198 76.824C97.1838 76.744 97.2958 76.624 97.4558 76.464C97.6238 76.304 97.8358 76.14 98.0918 75.972C98.3558 75.804 98.6638 75.664 99.0158 75.552C99.3678 75.432 99.7678 75.372 100.216 75.372C100.816 75.372 101.316 75.484 101.716 75.708C102.116 75.932 102.416 76.232 102.616 76.608C102.824 76.984 102.928 77.4 102.928 77.856C102.928 78.264 102.852 78.616 102.7 78.912C102.548 79.2 102.352 79.444 102.112 79.644C101.872 79.844 101.608 80.02 101.32 80.172C101.04 80.324 100.768 80.468 100.504 80.604C99.9998 80.844 99.5998 81.064 99.3038 81.264C99.0078 81.464 98.7798 81.66 98.6198 81.852C98.4678 82.036 98.3638 82.224 98.3078 82.416C98.2598 82.608 98.2318 82.816 98.2238 83.04H102.94V84H97.0598ZM107.726 84.12C107.142 84.104 106.626 83.964 106.178 83.7C105.73 83.436 105.354 83.092 105.05 82.668C104.754 82.236 104.53 81.772 104.378 81.276C104.226 80.772 104.15 80.28 104.15 79.8C104.15 79.288 104.23 78.776 104.39 78.264C104.558 77.752 104.798 77.288 105.11 76.872C105.422 76.448 105.798 76.112 106.238 75.864C106.678 75.608 107.174 75.48 107.726 75.48C108.318 75.48 108.834 75.616 109.274 75.888C109.722 76.16 110.094 76.512 110.39 76.944C110.694 77.376 110.922 77.844 111.074 78.348C111.226 78.852 111.302 79.336 111.302 79.8C111.302 80.32 111.218 80.836 111.05 81.348C110.89 81.852 110.654 82.312 110.342 82.728C110.03 83.144 109.654 83.48 109.214 83.736C108.774 83.984 108.278 84.112 107.726 84.12ZM105.242 79.8C105.258 80.192 105.318 80.584 105.422 80.976C105.526 81.368 105.682 81.728 105.89 82.056C106.098 82.384 106.354 82.648 106.658 82.848C106.962 83.048 107.318 83.148 107.726 83.148C108.15 83.148 108.518 83.044 108.83 82.836C109.142 82.62 109.398 82.344 109.598 82.008C109.806 81.664 109.958 81.3 110.054 80.916C110.158 80.524 110.21 80.152 110.21 79.8C110.21 79.408 110.154 79.016 110.042 78.624C109.938 78.232 109.778 77.872 109.562 77.544C109.346 77.216 109.086 76.952 108.782 76.752C108.478 76.552 108.126 76.452 107.726 76.452C107.302 76.452 106.934 76.56 106.622 76.776C106.31 76.984 106.05 77.26 105.842 77.604C105.642 77.94 105.49 78.304 105.386 78.696C105.29 79.08 105.242 79.448 105.242 79.8ZM112.423 84C112.423 83.52 112.463 83.096 112.543 82.728C112.631 82.352 112.755 82.016 112.915 81.72C113.083 81.424 113.283 81.164 113.515 80.94C113.747 80.716 114.011 80.516 114.307 80.34C114.619 80.156 114.939 79.988 115.267 79.836C115.595 79.684 115.899 79.524 116.179 79.356C116.459 79.188 116.683 78.988 116.851 78.756C117.027 78.516 117.115 78.22 117.115 77.868C117.115 77.588 117.055 77.336 116.935 77.112C116.815 76.88 116.635 76.696 116.395 76.56C116.155 76.424 115.847 76.356 115.471 76.356C115.095 76.356 114.755 76.42 114.451 76.548C114.155 76.676 113.899 76.828 113.683 77.004C113.467 77.18 113.295 77.348 113.167 77.508L112.483 76.824C112.547 76.744 112.659 76.624 112.819 76.464C112.987 76.304 113.199 76.14 113.455 75.972C113.719 75.804 114.027 75.664 114.379 75.552C114.731 75.432 115.131 75.372 115.579 75.372C116.179 75.372 116.679 75.484 117.079 75.708C117.479 75.932 117.779 76.232 117.979 76.608C118.187 76.984 118.291 77.4 118.291 77.856C118.291 78.264 118.215 78.616 118.063 78.912C117.911 79.2 117.715 79.444 117.475 79.644C117.235 79.844 116.971 80.02 116.683 80.172C116.403 80.324 116.131 80.468 115.867 80.604C115.363 80.844 114.963 81.064 114.667 81.264C114.371 81.464 114.143 81.66 113.983 81.852C113.831 82.036 113.727 82.224 113.671 82.416C113.623 82.608 113.595 82.816 113.587 83.04H118.303V84H112.423ZM119.501 84C119.501 83.52 119.541 83.096 119.621 82.728C119.709 82.352 119.833 82.016 119.993 81.72C120.161 81.424 120.361 81.164 120.593 80.94C120.825 80.716 121.089 80.516 121.385 80.34C121.697 80.156 122.017 79.988 122.345 79.836C122.673 79.684 122.977 79.524 123.257 79.356C123.537 79.188 123.761 78.988 123.929 78.756C124.105 78.516 124.193 78.22 124.193 77.868C124.193 77.588 124.133 77.336 124.013 77.112C123.893 76.88 123.713 76.696 123.473 76.56C123.233 76.424 122.925 76.356 122.549 76.356C122.173 76.356 121.833 76.42 121.529 76.548C121.233 76.676 120.977 76.828 120.761 77.004C120.545 77.18 120.373 77.348 120.245 77.508L119.561 76.824C119.625 76.744 119.737 76.624 119.897 76.464C120.065 76.304 120.277 76.14 120.533 75.972C120.797 75.804 121.105 75.664 121.457 75.552C121.809 75.432 122.209 75.372 122.657 75.372C123.257 75.372 123.757 75.484 124.157 75.708C124.557 75.932 124.857 76.232 125.057 76.608C125.265 76.984 125.369 77.4 125.369 77.856C125.369 78.264 125.293 78.616 125.141 78.912C124.989 79.2 124.793 79.444 124.553 79.644C124.313 79.844 124.049 80.02 123.761 80.172C123.481 80.324 123.209 80.468 122.945 80.604C122.441 80.844 122.041 81.064 121.745 81.264C121.449 81.464 121.221 81.66 121.061 81.852C120.909 82.036 120.805 82.224 120.749 82.416C120.701 82.608 120.673 82.816 120.665 83.04H125.381V84H119.501Z" fill="#121212"/>
<path d="M157.333 73.3333V75.3333" stroke="#A2A2A2" stroke-width="1.2" stroke-miterlimit="10" stroke-linecap="round" stroke-linejoin="round"/>
<path d="M162.667 73.3333V75.3333" stroke="#A2A2A2" stroke-width="1.2" stroke-miterlimit="10" stroke-linecap="round" stroke-linejoin="round"/>
<path d="M154.333 78.0601H165.667" stroke="#A2A2A2" stroke-width="1.2" stroke-miterlimit="10" stroke-linecap="round" stroke-linejoin="round"/>
<path d="M166 77.6666V83.3333C166 85.3333 165 86.6666 162.667 86.6666H157.333C155 86.6666 154 85.3333 154 83.3333V77.6666C154 75.6666 155 74.3333 157.333 74.3333H162.667C165 74.3333 166 75.6666 166 77.6666Z" stroke="#A2A2A2" stroke-width="1.2" stroke-miterlimit="10" stroke-linecap="round" stroke-linejoin="round"/>
<path d="M162.463 81.1334H162.469" stroke="#A2A2A2" stroke-width="1.5" stroke-linecap="round" stroke-linejoin="round"/>
<path d="M162.463 83.1334H162.469" stroke="#A2A2A2" stroke-width="1.5" stroke-linecap="round" stroke-linejoin="round"/>
<path d="M159.997 81.1334H160.003" stroke="#A2A2A2" stroke-width="1.5" stroke-linecap="round" stroke-linejoin="round"/>
<path d="M159.997 83.1334H160.003" stroke="#A2A2A2" stroke-width="1.5" stroke-linecap="round" stroke-linejoin="round"/>
<path d="M157.53 81.1334H157.536" stroke="#A2A2A2" stroke-width="1.5" stroke-linecap="round" stroke-linejoin="round"/>
<path d="M157.53 83.1334H157.536" stroke="#A2A2A2" stroke-width="1.5" stroke-linecap="round" stroke-linejoin="round"/>
<rect x="24.5" y="65.5" width="159" height="29" rx="3.5" stroke="#A2A2A2"/>
<path d="M416.584 75.48L418.936 79.716L421.312 75.48H422.788L419.608 80.952V84H418.264V80.928L415.108 75.48H416.584ZM429.691 82.812V84H423.847V75.48H429.583V76.668H425.191V79.092H428.995V80.208H425.191V82.812H429.691ZM433.537 75.48H434.809L438.121 84H436.705L435.805 81.684H432.517L431.629 84H430.201L433.537 75.48ZM435.541 80.688L434.173 76.956L432.757 80.688H435.541ZM439.175 84V75.48H442.883C443.267 75.48 443.619 75.56 443.939 75.72C444.259 75.88 444.535 76.092 444.767 76.356C445.007 76.62 445.191 76.916 445.319 77.244C445.455 77.572 445.523 77.908 445.523 78.252C445.523 78.628 445.455 78.988 445.319 79.332C445.183 79.676 444.987 79.972 444.731 80.22C444.483 80.468 444.191 80.648 443.855 80.76L445.859 84H444.347L442.499 81.036H440.519V84H439.175ZM440.519 79.848H442.871C443.119 79.848 443.339 79.776 443.531 79.632C443.723 79.488 443.875 79.296 443.987 79.056C444.099 78.808 444.155 78.54 444.155 78.252C444.155 77.956 444.091 77.692 443.963 77.46C443.835 77.22 443.667 77.028 443.459 76.884C443.259 76.74 443.039 76.668 442.799 76.668H440.519V79.848Z" fill="#A2A2A2"/>
<path d="M483.124 84V77.928L480.616 82.536H479.824L477.304 77.928V84H475.96V75.48H477.4L480.22 80.688L483.04 75.48H484.48V84H483.124ZM489.941 84.06C489.325 84.06 488.769 83.94 488.273 83.7C487.777 83.46 487.349 83.136 486.989 82.728C486.629 82.312 486.349 81.848 486.149 81.336C485.957 80.816 485.861 80.284 485.861 79.74C485.861 79.172 485.965 78.632 486.173 78.12C486.381 77.6 486.669 77.14 487.037 76.74C487.405 76.332 487.837 76.012 488.333 75.78C488.837 75.54 489.381 75.42 489.965 75.42C490.573 75.42 491.125 75.544 491.621 75.792C492.125 76.04 492.553 76.372 492.905 76.788C493.265 77.204 493.541 77.668 493.733 78.18C493.933 78.692 494.033 79.216 494.033 79.752C494.033 80.32 493.929 80.864 493.721 81.384C493.521 81.896 493.237 82.356 492.869 82.764C492.501 83.164 492.065 83.48 491.561 83.712C491.065 83.944 490.525 84.06 489.941 84.06ZM487.229 79.74C487.229 80.14 487.293 80.528 487.421 80.904C487.549 81.28 487.729 81.616 487.961 81.912C488.201 82.2 488.489 82.428 488.825 82.596C489.161 82.764 489.537 82.848 489.953 82.848C490.385 82.848 490.769 82.76 491.105 82.584C491.441 82.408 491.721 82.172 491.945 81.876C492.177 81.572 492.353 81.236 492.473 80.868C492.593 80.492 492.653 80.116 492.653 79.74C492.653 79.34 492.589 78.956 492.461 78.588C492.341 78.212 492.161 77.88 491.921 77.592C491.681 77.296 491.393 77.064 491.057 76.896C490.729 76.728 490.361 76.644 489.953 76.644C489.521 76.644 489.137 76.732 488.801 76.908C488.465 77.084 488.181 77.32 487.949 77.616C487.717 77.912 487.537 78.244 487.409 78.612C487.289 78.98 487.229 79.356 487.229 79.74ZM496.769 77.976V84H495.425V75.48H496.529L501.353 81.636V75.492H502.709V84H501.533L496.769 77.976ZM510.876 76.668H508.044V84H506.688V76.668H503.844V75.48H510.876V76.668ZM519.015 75.48V84H517.659V80.244H513.363V84H512.019V75.48H513.363V79.044H517.659V75.48H519.015Z" fill="#A2A2A2"/>
<path d="M551.984 75.516H553.244L554.3 78.408L555.368 75.516H556.628L555.164 79.308L556.436 82.44L559.088 75.48H560.564L557.072 84H555.908L554.312 80.184L552.704 84H551.528L548.048 75.48H549.512L552.176 82.44L553.448 79.308L551.984 75.516ZM567.413 82.812V84H561.569V75.48H567.305V76.668H562.913V79.092H566.717V80.208H562.913V82.812H567.413ZM574.644 82.812V84H568.8V75.48H574.536V76.668H570.144V79.092H573.948V80.208H570.144V82.812H574.644ZM576.03 84V75.492H577.374V79.872L581.382 75.48H582.87L579.51 79.248L583.062 84H581.538L578.658 80.1L577.374 81.432V84H576.03Z" fill="#A2A2A2"/>
<rect width="44" height="34" transform="translate(601 63)" fill="#F5F1FF"/>
<path d="M611.888 84V75.48H614.984C615.912 75.48 616.688 75.672 617.312 76.056C617.936 76.432 618.404 76.944 618.716 77.592C619.028 78.232 619.184 78.944 619.184 79.728C619.184 80.592 619.012 81.344 618.668 81.984C618.324 82.624 617.836 83.12 617.204 83.472C616.58 83.824 615.84 84 614.984 84H611.888ZM617.516 79.728C617.516 79.176 617.416 78.692 617.216 78.276C617.016 77.852 616.728 77.524 616.352 77.292C615.976 77.052 615.52 76.932 614.984 76.932H613.544V82.548H614.984C615.528 82.548 615.988 82.428 616.364 82.188C616.74 81.94 617.024 81.604 617.216 81.18C617.416 80.748 617.516 80.264 617.516 79.728ZM622.466 75.48H624.146L627.278 84H625.574L624.782 81.876H621.806L621.026 84H619.322L622.466 75.48ZM624.482 80.712L623.306 77.196L622.082 80.712H624.482ZM628.27 75.48L630.37 79.488L632.506 75.48H634.294L631.198 81.024V84H629.554V81L626.47 75.48H628.27Z" fill="#6454D6"/>
<path d="M31.6201 127V125.4H27.8281C29.1081 123.864 29.3481 123.608 30.5481 122.2C31.2361 121.448 31.6841 120.536 31.6841 119.512C31.6841 117.656 30.1961 116.392 28.3561 116.392C26.6441 116.392 25.2681 117.496 24.9801 119.272L26.5481 119.608C26.6761 118.632 27.4281 118.008 28.3241 118.008C29.3001 118.008 30.0521 118.616 30.0521 119.512C30.0521 120.072 29.7641 120.584 29.3321 121.096L25.0761 126.216V127H31.6201ZM33.3518 121.8C33.3518 124.744 34.1678 127.16 37.1758 127.16C40.1998 127.16 40.9838 124.744 40.9838 121.8C40.9838 118.824 40.1998 116.408 37.1758 116.408C34.1678 116.408 33.3518 118.824 33.3518 121.8ZM34.9838 121.8C34.9838 119.736 35.4318 118.04 37.1758 118.04C38.9038 118.04 39.3518 119.736 39.3518 121.8C39.3518 123.864 38.9038 125.56 37.1758 125.56C35.4318 125.56 34.9838 123.864 34.9838 121.8Z" fill="#A2A2A2"/>
<path d="M28.3666 194.101V195.621L30.0946 194.997V203.333H31.7266V192.773L28.3666 194.101ZM39.5626 199.893C39.5626 200.981 38.7786 201.893 37.1626 201.893C36.2506 201.893 35.4506 201.317 35.0186 200.373C34.7306 200.533 33.9146 200.997 33.6266 201.173C34.3146 202.581 35.7066 203.493 37.1626 203.493C39.5786 203.493 41.1786 202.069 41.1786 199.893C41.1786 197.653 39.5786 196.485 37.6426 196.485C37.0026 196.485 36.1546 196.709 35.6906 197.077L36.1866 194.437H40.5706V192.885H34.8586L33.9626 198.181L34.9386 198.901C35.8986 198.181 36.6186 197.957 37.4666 197.957C38.6026 197.957 39.5626 198.597 39.5626 199.893Z" fill="#A2A2A2"/>
<path d="M27.8197 270.435V271.955L29.5477 271.331V279.667H31.1797V269.107L27.8197 270.435ZM33.3517 274.467C33.3517 277.411 34.1677 279.827 37.1757 279.827C40.1997 279.827 40.9837 277.411 40.9837 274.467C40.9837 271.491 40.1997 269.075 37.1757 269.075C34.1677 269.075 33.3517 271.491 33.3517 274.467ZM34.9837 274.467C34.9837 272.403 35.4317 270.707 37.1757 270.707C38.9037 270.707 39.3517 272.403 39.3517 274.467C39.3517 276.531 38.9037 278.227 37.1757 278.227C35.4317 278.227 34.9837 276.531 34.9837 274.467Z" fill="#A2A2A2"/>
<path d="M39.5626 352.56C39.5626 353.648 38.7786 354.56 37.1626 354.56C36.2506 354.56 35.4506 353.984 35.0186 353.04C34.7306 353.2 33.9146 353.664 33.6266 353.84C34.3146 355.248 35.7066 356.16 37.1626 356.16C39.5786 356.16 41.1786 354.736 41.1786 352.56C41.1786 350.32 39.5786 349.152 37.6426 349.152C37.0026 349.152 36.1546 349.376 35.6906 349.744L36.1866 347.104H40.5706V345.552H34.8586L33.9626 350.848L34.9386 351.568C35.8986 350.848 36.6186 350.624 37.4666 350.624C38.6026 350.624 39.5626 351.264 39.5626 352.56Z" fill="#A2A2A2"/>
<path d="M59.944 376.32L62.68 372.24V376.32H59.944ZM65.768 377.808V376.32H64.312V369.552H62.904L57.336 377.808H62.68V380H64.312V377.808H65.768Z" fill="#A2A2A2"/>
<path d="M159.172 376.56C159.172 377.648 158.388 378.56 156.772 378.56C155.86 378.56 155.06 377.984 154.628 377.04C154.34 377.2 153.524 377.664 153.236 377.84C153.924 379.248 155.316 380.16 156.772 380.16C159.188 380.16 160.788 378.736 160.788 376.56C160.788 374.32 159.188 373.152 157.252 373.152C156.612 373.152 155.764 373.376 155.3 373.744L155.796 371.104H160.18V369.552H154.468L153.572 374.848L154.548 375.568C155.508 374.848 156.228 374.624 157.076 374.624C158.212 374.624 159.172 375.264 159.172 376.56Z" fill="#A2A2A2"/>
<path d="M254.416 376.752C254.416 377.792 253.584 378.576 252.56 378.528C251.584 378.528 250.752 377.68 250.752 376.624C250.752 375.664 251.664 374.8 252.688 374.848C253.696 374.896 254.416 375.712 254.416 376.752ZM252.848 373.264C251.808 373.264 251.056 373.664 250.624 374.448C250.448 372.48 251.408 370.944 252.864 370.944C253.488 370.944 254.112 371.248 254.496 372.064L255.984 371.424C255.264 369.84 254.128 369.456 252.928 369.408C249.312 369.28 248.8 373.312 249.056 376.56C249.232 378.752 250.624 380.16 252.496 380.16C254.496 380.16 255.984 378.752 256.064 376.832C256.064 374.768 254.64 373.264 252.848 373.264Z" fill="#A2A2A2"/>
<path d="M343.38 369.552V371.136H348.068L343.412 380H345.316L350.772 369.552H343.38Z" fill="#A2A2A2"/>
<path d="M440.264 372.144C440.264 371.504 440.808 370.976 441.56 370.976C442.312 370.976 442.856 371.504 442.856 372.144C442.856 372.8 442.344 373.344 441.592 373.36C440.808 373.36 440.264 372.848 440.264 372.144ZM439.496 376.672C439.496 375.696 440.328 374.784 441.432 374.784H441.608C442.744 374.784 443.608 375.664 443.608 376.672C443.608 377.728 442.712 378.576 441.56 378.576C440.408 378.576 439.496 377.728 439.496 376.672ZM438.664 372.128C438.664 372.88 438.968 373.504 439.432 373.952C438.472 374.528 437.864 375.52 437.864 376.688C437.864 378.624 439.48 380.16 441.56 380.16C443.624 380.16 445.256 378.624 445.256 376.688C445.256 375.536 444.648 374.544 443.672 373.952C444.168 373.504 444.488 372.88 444.488 372.128C444.488 370.64 443.208 369.392 441.56 369.392C439.912 369.392 438.664 370.64 438.664 372.128Z" fill="#A2A2A2"/>
<path d="M535.044 372.816C535.044 371.776 535.876 370.992 536.9 371.04C537.876 371.04 538.708 371.888 538.708 372.944C538.708 373.904 537.796 374.768 536.772 374.72C535.764 374.672 535.044 373.856 535.044 372.816ZM536.612 376.304C537.636 376.304 538.452 375.872 538.836 375.12C539.012 377.088 538.052 378.624 536.596 378.624C535.972 378.624 535.348 378.32 534.964 377.504L533.476 378.144C534.196 379.728 535.332 380.112 536.532 380.16C540.148 380.288 540.66 376.256 540.404 373.008C540.228 370.816 538.836 369.408 536.964 369.408C534.98 369.408 533.444 370.816 533.396 372.736C533.396 374.8 534.82 376.304 536.612 376.304Z" fill="#A2A2A2"/>
<path d="M627.656 370.768V372.288L629.384 371.664V380H631.016V369.44L627.656 370.768ZM633.188 374.8C633.188 377.744 634.004 380.16 637.012 380.16C640.036 380.16 640.82 377.744 640.82 374.8C640.82 371.824 640.036 369.408 637.012 369.408C634.004 369.408 633.188 371.824 633.188 374.8ZM634.82 374.8C634.82 372.736 635.268 371.04 637.012 371.04C638.74 371.04 639.188 372.736 639.188 374.8C639.188 376.864 638.74 378.56 637.012 378.56C635.268 378.56 634.82 376.864 634.82 374.8Z" fill="#A2A2A2"/>
<path d="M58 121H646" stroke="#D8D2F7" stroke-dasharray="6 6"/>
<path d="M58 198H646" stroke="#D8D2F7" stroke-dasharray="6 6"/>
<path d="M58 275H646" stroke="#D8D2F7" stroke-dasharray="6 6"/>
<path d="M58 352H646" stroke="#D8D2F7" stroke-dasharray="6 6"/>
<path d="M156.828 248.538C126.131 223.914 78.1521 288.287 58 313.069V352H646V286.551C640.295 269.504 618.946 247.531 579.194 296.022C529.504 356.635 509.904 286.551 465.183 235.409C420.462 184.267 449.172 345.98 395.893 246.063C342.614 146.147 314.18 183.664 274.704 265.586C235.228 347.508 195.2 279.318 156.828 248.538Z" fill="url(#paint0_linear_88_667)"/>
<path d="M58 313.069C78.1521 288.287 126.131 223.914 156.828 248.538C195.2 279.318 235.228 347.508 274.704 265.586C314.18 183.664 342.614 146.147 395.893 246.063C449.172 345.98 420.462 184.267 465.183 235.409C509.904 286.551 529.504 356.635 579.194 296.022C618.946 247.531 640.295 269.504 646 286.551" stroke="#6454D6" stroke-width="2"/>
<path d="M347 352V187" stroke="#8173DE" stroke-dasharray="6 6"/>
<path fill-rule="evenodd" clip-rule="evenodd" d="M352.774 227L347 217L341.227 227H313C310.791 227 309 228.791 309 231V265C309 267.209 310.791 269 313 269H381C383.209 269 385 267.209 385 265V231C385 228.791 383.209 227 381 227H352.774Z" fill="#211E85"/>
<path d="M325.503 246H326.583V238.092L324.231 238.944V239.976L325.503 239.532V246ZM333.639 239.58C333.099 238.392 332.271 238.104 331.395 238.068C329.967 238.032 328.935 239.028 328.707 240.456C328.551 241.452 328.503 242.436 328.575 243.42C328.707 245.052 329.691 246.048 331.071 246.108C332.475 246.168 333.639 245.028 333.699 243.624C333.735 242.232 332.715 240.936 331.275 240.936C330.555 240.936 329.919 241.188 329.667 241.824C329.511 240.228 330.279 239.088 331.347 239.088C331.839 239.088 332.355 239.352 332.679 239.988L333.639 239.58ZM329.655 243.456C329.691 242.616 330.411 241.98 331.239 242.016C332.067 242.052 332.667 242.724 332.631 243.576C332.595 244.416 331.947 245.052 331.119 245.016C330.303 244.98 329.655 244.332 329.655 243.456ZM344.588 243.984C344.024 244.644 343.22 245.04 342.296 245.04C340.556 245.04 339.224 243.648 339.224 241.884C339.224 240.12 340.556 238.716 342.296 238.716C343.208 238.716 344 239.124 344.564 239.736L345.404 239.04C344.672 238.176 343.58 237.636 342.296 237.636C339.956 237.636 338.108 239.544 338.108 241.884C338.108 244.236 339.956 246.12 342.296 246.12C343.592 246.12 344.696 245.568 345.428 244.692L344.588 243.984ZM351.063 246H352.143V240.396H351.063V241.236C350.679 240.6 349.875 240.276 349.095 240.276C347.559 240.276 346.251 241.404 346.251 243.192C346.251 244.968 347.559 246.12 349.095 246.12C349.875 246.12 350.691 245.76 351.063 245.136V246ZM351.051 243.18C351.051 244.368 350.187 245.052 349.191 245.052C348.183 245.052 347.367 244.284 347.367 243.18C347.367 242.076 348.183 241.344 349.191 241.344C350.103 241.344 351.051 241.98 351.051 243.18ZM355.063 243.96C355.063 242.472 355.519 241.32 356.599 241.32C356.827 241.32 357.127 241.368 357.427 241.512L357.595 240.492C357.439 240.384 357.019 240.276 356.623 240.276C355.891 240.276 355.351 240.66 355.063 241.656V240.396H353.971V246H355.063V243.96ZM362.993 246H364.085V237.348H362.993V241.236C362.621 240.6 361.841 240.276 361.013 240.276C359.477 240.276 358.193 241.404 358.193 243.192C358.193 244.968 359.489 246.12 361.025 246.12C361.805 246.12 362.621 245.76 362.993 245.136V246ZM362.981 243.18C362.981 244.368 362.117 245.052 361.121 245.052C360.113 245.052 359.309 244.284 359.309 243.18C359.309 242.076 360.113 241.344 361.121 241.344C362.033 241.344 362.981 241.98 362.981 243.18ZM367.952 243.708C368.372 243.804 368.708 243.996 368.696 244.416C368.684 244.836 368.36 245.112 367.844 245.148C367.496 245.172 367.208 245.112 366.956 244.956C366.68 244.824 366.536 244.56 366.5 244.32H365.504C365.54 245.472 366.584 246.12 367.592 246.12C368.756 246.12 369.764 245.496 369.764 244.44C369.764 243.804 369.464 243.096 368.312 242.808L367.484 242.604C367.196 242.52 366.932 242.4 366.824 242.172C366.764 242.052 366.764 241.908 366.812 241.728C366.896 241.428 367.232 241.224 367.652 241.224C368.084 241.224 368.468 241.44 368.528 241.86H369.572C369.476 240.72 368.576 240.276 367.628 240.276C366.62 240.276 365.78 240.888 365.684 241.704C365.588 242.748 366.164 243.252 367.184 243.528L367.952 243.708ZM335.577 256.612C335.577 257.908 336.789 259.12 338.469 259.12C340.101 259.12 341.073 258.16 341.229 256.96C341.409 255.628 340.569 254.764 339.021 254.368L337.941 254.104C336.897 253.852 336.765 253.312 336.765 252.952C336.765 252.196 337.497 251.704 338.313 251.704C339.225 251.704 339.873 252.232 339.873 253.06H340.989C340.989 251.572 339.825 250.636 338.325 250.636C336.921 250.636 335.649 251.572 335.649 252.964C335.649 253.684 335.901 254.68 337.665 255.124L338.733 255.388C339.477 255.556 340.197 255.976 340.137 256.864C340.041 257.488 339.525 258.076 338.469 258.076C337.425 258.076 336.693 257.332 336.693 256.612H335.577ZM345.3 259.12C346.896 259.12 348.24 257.956 348.24 256.18C348.24 254.404 346.896 253.276 345.3 253.276C343.704 253.276 342.372 254.404 342.372 256.18C342.372 257.956 343.704 259.12 345.3 259.12ZM345.3 258.064C344.28 258.064 343.452 257.332 343.452 256.18C343.452 255.052 344.28 254.344 345.3 254.344C346.296 254.344 347.148 255.052 347.148 256.18C347.148 257.332 346.296 258.064 345.3 258.064ZM349.693 250.348V259H350.785V250.348H349.693ZM357.039 259H358.131V250.348H357.039V254.236C356.667 253.6 355.887 253.276 355.059 253.276C353.523 253.276 352.239 254.404 352.239 256.192C352.239 257.968 353.535 259.12 355.071 259.12C355.851 259.12 356.667 258.76 357.039 258.136V259ZM357.027 256.18C357.027 257.368 356.163 258.052 355.167 258.052C354.159 258.052 353.355 257.284 353.355 256.18C353.355 255.076 354.159 254.344 355.167 254.344C356.079 254.344 357.027 254.98 357.027 256.18Z" fill="white"/>
<circle cx="347" cy="185" r="7.25" fill="#F5F1FF" stroke="#6454D6" stroke-width="1.5"/>
<circle cx="347" cy="185" r="4" fill="#6454D6"/>
<defs>
<linearGradient id="paint0_linear_88_667" x1="362.265" y1="119.5" x2="347.061" y2="380.124" gradientUnits="userSpaceOnUse">
<stop stop-color="#6454D6" stop-opacity="0.14"/>
<stop offset="0.9361" stop-color="#6454D6" stop-opacity="0"/>
</linearGradient>
</defs>
</svg>
