<svg width="72" height="32" viewBox="0 0 72 32" fill="none" xmlns="http://www.w3.org/2000/svg">
<rect width="72" height="32" fill="#F9FAFB"/>
<path d="M43.3346 16.4336C40.9047 16.5042 39.3862 16.8913 39.3862 18.3237C39.3862 19.2517 40.2188 20.2491 42.3182 20.2491C45.1311 20.2491 46.6369 18.8873 46.6369 16.6454V16.3989L43.3353 16.4342L43.3346 16.4336ZM49.3307 19.3917L49.4229 21.3871H46.927C46.861 20.8821 46.8348 20.3777 46.8348 19.8842C45.4879 21.3632 43.8758 21.7856 41.6445 21.7856C38.3428 21.7856 36.5732 20.236 36.5732 18.4398C36.5732 15.8336 38.9769 14.9181 43.17 14.8362C44.312 14.8134 45.5929 14.8134 46.6497 14.8134V14.5549C46.6497 12.8174 45.3944 12.1069 43.2168 12.1069C41.6054 12.1069 40.4039 12.7058 40.2847 13.7271H37.459C37.7626 11.1681 40.7869 10.522 43.441 10.522C46.6433 10.522 49.3179 11.5313 49.3179 14.5253V19.3968L49.3307 19.3917Z" fill="#F5AF02"/>
<path d="M20.1043 15.1674C19.9986 12.9369 18.1829 12.1034 16.2487 12.1034C14.162 12.1034 12.4847 13.0428 12.1945 15.1674H20.1043ZM12.1414 16.7523C12.2868 18.9242 13.9641 20.2034 16.2749 20.2034C17.8729 20.2034 19.2992 19.6341 19.7744 18.3606H22.5477C22.0065 20.9196 18.9418 21.7878 16.314 21.7878C11.5201 21.7878 9.40723 19.44 9.40723 16.2827C9.40723 12.7962 11.5995 10.5071 16.3672 10.5071C20.1574 10.5071 22.9307 12.2679 22.9307 16.1187V16.7529L12.1414 16.7523Z" fill="#E53238"/>
<path d="M29.8117 20.1554C32.3076 20.1554 34.0112 18.5591 34.0112 16.1521C34.0112 13.7451 32.3076 12.1488 29.8117 12.1488C27.3286 12.1488 25.6122 13.7451 25.6122 16.1521C25.6122 18.5591 27.3286 20.1554 29.8117 20.1554ZM22.9299 6.31396H25.6102V12.3127C26.9309 10.9156 28.7402 10.5166 30.5226 10.5166C33.52 10.5166 36.8357 12.3127 36.8357 16.1868C36.8357 19.4318 34.1944 21.7984 30.4695 21.7984C28.5148 21.7984 26.6926 21.1762 25.5571 19.9436C25.5571 20.4367 25.5315 20.9297 25.4649 21.3994H22.8242L22.9164 18.9343V6.31396H22.9299Z" fill="#0064D2"/>
<path d="M63.0001 10.905L54.6926 25.4029H51.6824L54.0726 21.3762L47.8262 10.905H50.9696L55.5656 19.0871L60.1481 10.905H63.0001Z" fill="#86B817"/>
</svg>
