<svg width="217" height="48" viewBox="0 0 217 48" fill="none" xmlns="http://www.w3.org/2000/svg">
<rect width="24.2482" height="33.8587" rx="3.79009" transform="matrix(0.754087 0.656775 -0.650852 0.759204 39.7147 1.61932)" fill="#FFE6ED"/>
<rect width="20.4196" height="30.0257" rx="1.26336" transform="matrix(0.754087 0.656775 -0.650852 0.759204 39.9109 4.3316)" fill="#FF99B9"/>
<rect width="29.2747" height="40.9946" rx="3.79009" transform="matrix(0.95287 -0.303378 0.299045 0.954239 0 8.88135)" fill="#DAD6F5"/>
<rect width="24.1835" height="36.1906" rx="1.26336" transform="matrix(0.95287 -0.303378 0.299045 0.954239 3.19189 10.554)" fill="#6454D6"/>
<path d="M84.956 33.5V19.332L79.104 30.084H77.256L71.376 19.332V33.5H68.24V13.62H71.6L78.18 25.772L84.76 13.62H88.12V33.5H84.956ZM99.3852 33.78C98.2279 33.78 97.1919 33.584 96.2772 33.192C95.3625 32.7813 94.5692 32.2213 93.8972 31.512C93.2439 30.8027 92.7399 30 92.3852 29.104C92.0305 28.1893 91.8532 27.2187 91.8532 26.192C91.8532 25.1653 92.0305 24.1947 92.3852 23.28C92.7399 22.3653 93.2439 21.5627 93.8972 20.872C94.5692 20.1627 95.3625 19.612 96.2772 19.22C97.2105 18.8093 98.2465 18.604 99.3852 18.604C100.524 18.604 101.551 18.8093 102.465 19.22C103.399 19.612 104.192 20.1627 104.845 20.872C105.517 21.5627 106.031 22.3653 106.385 23.28C106.74 24.1947 106.917 25.1653 106.917 26.192C106.917 27.2187 106.74 28.1893 106.385 29.104C106.031 30 105.517 30.8027 104.845 31.512C104.192 32.2213 103.399 32.7813 102.465 33.192C101.551 33.584 100.524 33.78 99.3852 33.78ZM95.0172 26.22C95.0172 27.1533 95.2132 27.9933 95.6052 28.74C95.9972 29.4867 96.5199 30.0747 97.1732 30.504C97.8265 30.9333 98.5639 31.148 99.3852 31.148C100.188 31.148 100.916 30.9333 101.569 30.504C102.241 30.056 102.773 29.4587 103.165 28.712C103.557 27.9467 103.753 27.1067 103.753 26.192C103.753 25.2587 103.557 24.4187 103.165 23.672C102.773 22.9253 102.241 22.3373 101.569 21.908C100.916 21.46 100.188 21.236 99.3852 21.236C98.5639 21.236 97.8265 21.46 97.1732 21.908C96.5199 22.356 95.9972 22.9533 95.6052 23.7C95.2132 24.428 95.0172 25.268 95.0172 26.22ZM123.621 33.5H120.541V25.296C120.541 23.9333 120.317 22.9347 119.869 22.3C119.44 21.6653 118.796 21.348 117.937 21.348C117.34 21.348 116.742 21.4973 116.145 21.796C115.566 22.0947 115.044 22.5053 114.577 23.028C114.11 23.532 113.774 24.12 113.569 24.792V33.5H110.489V18.856H113.289V21.796C113.662 21.1427 114.148 20.5827 114.745 20.116C115.361 19.6307 116.052 19.2573 116.817 18.996C117.582 18.7347 118.394 18.604 119.253 18.604C120.13 18.604 120.849 18.7627 121.409 19.08C121.988 19.3973 122.436 19.836 122.753 20.396C123.089 20.9373 123.313 21.572 123.425 22.3C123.556 23.0093 123.621 23.7653 123.621 24.568V33.5ZM150.436 33.5H147.356V25.296C147.356 23.9333 147.132 22.9347 146.684 22.3C146.236 21.6653 145.583 21.348 144.724 21.348C143.865 21.348 143.063 21.6747 142.316 22.328C141.588 22.9627 141.075 23.7933 140.776 24.82V33.5H137.696V25.296C137.696 23.9333 137.472 22.9347 137.024 22.3C136.576 21.6653 135.932 21.348 135.092 21.348C134.233 21.348 133.431 21.6653 132.684 22.3C131.956 22.9347 131.433 23.7653 131.116 24.792V33.5H128.036V18.856H130.836V21.796C131.415 20.7693 132.171 19.9853 133.104 19.444C134.056 18.884 135.139 18.604 136.352 18.604C137.565 18.604 138.517 18.9213 139.208 19.556C139.917 20.1907 140.356 20.984 140.524 21.936C141.159 20.8533 141.933 20.032 142.848 19.472C143.781 18.8933 144.845 18.604 146.04 18.604C146.899 18.604 147.617 18.7627 148.196 19.08C148.775 19.3973 149.223 19.836 149.54 20.396C149.857 20.9373 150.081 21.572 150.212 22.3C150.361 23.0093 150.436 23.7653 150.436 24.568V33.5ZM161.405 33.78C160.248 33.78 159.212 33.584 158.297 33.192C157.383 32.7813 156.589 32.2213 155.917 31.512C155.264 30.8027 154.76 30 154.405 29.104C154.051 28.1893 153.873 27.2187 153.873 26.192C153.873 25.1653 154.051 24.1947 154.405 23.28C154.76 22.3653 155.264 21.5627 155.917 20.872C156.589 20.1627 157.383 19.612 158.297 19.22C159.231 18.8093 160.267 18.604 161.405 18.604C162.544 18.604 163.571 18.8093 164.485 19.22C165.419 19.612 166.212 20.1627 166.865 20.872C167.537 21.5627 168.051 22.3653 168.405 23.28C168.76 24.1947 168.937 25.1653 168.937 26.192C168.937 27.2187 168.76 28.1893 168.405 29.104C168.051 30 167.537 30.8027 166.865 31.512C166.212 32.2213 165.419 32.7813 164.485 33.192C163.571 33.584 162.544 33.78 161.405 33.78ZM157.037 26.22C157.037 27.1533 157.233 27.9933 157.625 28.74C158.017 29.4867 158.54 30.0747 159.193 30.504C159.847 30.9333 160.584 31.148 161.405 31.148C162.208 31.148 162.936 30.9333 163.589 30.504C164.261 30.056 164.793 29.4587 165.185 28.712C165.577 27.9467 165.773 27.1067 165.773 26.192C165.773 25.2587 165.577 24.4187 165.185 23.672C164.793 22.9253 164.261 22.3373 163.589 21.908C162.936 21.46 162.208 21.236 161.405 21.236C160.584 21.236 159.847 21.46 159.193 21.908C158.54 22.356 158.017 22.9533 157.625 23.7C157.233 24.428 157.037 25.268 157.037 26.22ZM172.369 27.816V18.856H175.449V27.2C175.449 28.5067 175.682 29.496 176.149 30.168C176.634 30.8213 177.334 31.148 178.249 31.148C178.828 31.148 179.388 31.0267 179.929 30.784C180.489 30.5413 180.993 30.1867 181.441 29.72C181.908 29.2347 182.281 28.656 182.561 27.984V18.856H185.641V30.028C185.641 30.3827 185.706 30.6347 185.837 30.784C185.968 30.9333 186.182 31.0173 186.481 31.036V33.5C186.164 33.556 185.902 33.5933 185.697 33.612C185.492 33.6307 185.296 33.64 185.109 33.64C184.549 33.64 184.082 33.4907 183.709 33.192C183.336 32.8747 183.121 32.4733 183.065 31.988L183.009 30.532C182.356 31.596 181.506 32.408 180.461 32.968C179.416 33.5093 178.268 33.78 177.017 33.78C175.486 33.78 174.329 33.276 173.545 32.268C172.761 31.26 172.369 29.776 172.369 27.816ZM198.532 32.744C198.271 32.8747 197.944 33.0147 197.552 33.164C197.16 33.3133 196.712 33.444 196.208 33.556C195.723 33.668 195.219 33.724 194.696 33.724C194.061 33.724 193.473 33.612 192.932 33.388C192.391 33.164 191.952 32.8093 191.616 32.324C191.299 31.82 191.14 31.176 191.14 30.392V21.236H189.208V18.856H191.14V14.04H194.22V18.856H197.412V21.236H194.22V29.412C194.257 29.916 194.416 30.2893 194.696 30.532C194.995 30.7747 195.359 30.896 195.788 30.896C196.217 30.896 196.628 30.8213 197.02 30.672C197.412 30.5227 197.701 30.4013 197.888 30.308L198.532 32.744ZM214.637 33.5H211.557V25.296C211.557 23.9707 211.315 22.9813 210.829 22.328C210.344 21.6747 209.663 21.348 208.785 21.348C208.244 21.348 207.684 21.4973 207.105 21.796C206.527 22.0947 206.013 22.5053 205.565 23.028C205.117 23.532 204.791 24.12 204.585 24.792V33.5H201.505V13.06H204.585V21.796C205.145 20.8067 205.911 20.032 206.881 19.472C207.852 18.8933 208.897 18.604 210.017 18.604C210.932 18.604 211.688 18.7627 212.285 19.08C212.883 19.3973 213.349 19.836 213.685 20.396C214.04 20.9373 214.283 21.572 214.413 22.3C214.563 23.0093 214.637 23.7653 214.637 24.568V33.5Z" fill="#6454D6"/>
</svg>
