<svg width="26" height="26" viewBox="0 0 26 26" fill="none" xmlns="http://www.w3.org/2000/svg">
<circle cx="13" cy="13" r="13" fill="#BCF5A8"/>
<path d="M13 3C7.49 3 3 7.49 3 13C3 18.51 7.49 23 13 23C18.51 23 23 18.51 23 13C23 7.49 18.51 3 13 3Z" fill="#22C38F"/>
<path d="M11.9315 17.0449L18.739 10.2374C19.0872 9.87721 19.0872 9.31292 18.739 8.96475C18.3908 8.61657 17.8145 8.61657 17.4663 8.96475L11.2952 15.1359L8.53378 12.3745C8.1856 12.0263 7.60931 12.0263 7.26113 12.3745C6.91296 12.7227 6.91296 13.299 7.26113 13.6471L10.6589 17.0449C10.827 17.2129 11.0551 17.309 11.2952 17.309C11.5353 17.309 11.7634 17.2129 11.9315 17.0449Z" fill="white"/>
</svg>
