<svg width="72" height="32" viewBox="0 0 72 32" fill="none" xmlns="http://www.w3.org/2000/svg">
<rect width="72" height="32" fill="#F9FAFB"/>
<path d="M21.8133 9.03127C21.8055 8.98199 21.7818 8.93673 21.7459 8.90262C21.7101 8.86851 21.664 8.84748 21.6151 8.84284C21.536 8.82997 19.7982 8.70778 19.7982 8.70778L18.4732 7.36173C18.3542 7.22667 18.0895 7.26655 17.9895 7.29484C17.9769 7.29484 17.7249 7.37523 17.314 7.51093C16.9139 6.33659 16.2061 5.25872 14.9603 5.25872H14.8539C14.4962 4.78924 14.0594 4.57251 13.6891 4.57251C10.787 4.58537 9.40315 8.26274 8.96633 10.1419L6.93796 10.7741C6.31565 10.9754 6.29223 10.9902 6.20993 11.5928L4.5 24.991L17.3185 27.4284L24.2658 25.9068C24.2658 25.8939 21.8266 9.1599 21.8139 9.03256L21.8133 9.03127ZM16.6031 7.73731C16.2802 7.84536 15.9067 7.9534 15.5167 8.07495V7.83249C15.5294 7.22667 15.4389 6.62342 15.2521 6.04719C15.9016 6.1488 16.3385 6.88968 16.6031 7.73731ZM14.4696 6.20282C14.6817 6.83758 14.7862 7.50643 14.7596 8.17721V8.29811L12.5185 9.00555C12.9572 7.34179 13.7657 6.51924 14.4684 6.2099L14.4696 6.20282ZM13.6087 5.38413C13.7416 5.38734 13.8701 5.42915 13.9796 5.50504C13.0446 5.9475 12.0564 7.06396 11.6322 9.29945L9.85959 9.85125C10.3597 8.1547 11.5265 5.38027 13.6074 5.38027L13.6087 5.38413Z" fill="#95BF47"/>
<path d="M21.6151 8.84153C21.5359 8.82867 19.7982 8.70647 19.7982 8.70647L18.4731 7.36042C18.4244 7.30897 18.3579 7.28067 18.2876 7.28003L17.3203 27.4252L24.2677 25.9035L21.8139 9.04218C21.7974 8.93928 21.7176 8.85696 21.6157 8.84089L21.6151 8.84153Z" fill="#5E8E3E"/>
<path d="M14.9588 12.7467L14.0966 15.332C13.5756 15.0748 13.0052 14.9378 12.4265 14.9269C11.0737 14.9269 11.0084 15.7887 11.0084 16.0047C11.0084 17.1817 14.044 17.6344 14.044 20.4088C14.044 22.5903 12.6785 23.991 10.8489 23.991C8.64835 23.991 7.52148 22.6038 7.52148 22.6038L8.10644 20.623C8.10644 20.623 9.25864 21.6327 10.2412 21.6327C10.3586 21.6374 10.4758 21.6178 10.5855 21.5751C10.6953 21.5325 10.7953 21.4675 10.8797 21.3844C10.964 21.3012 11.0308 21.2015 11.076 21.0913C11.1212 20.981 11.1439 20.8627 11.1427 20.7433C11.1427 19.1933 8.65025 19.1265 8.65025 16.5951C8.65025 14.4664 10.1608 12.3923 13.197 12.3923C14.3903 12.4103 14.9607 12.7461 14.9607 12.7461L14.9588 12.7467Z" fill="white"/>
<path d="M30.2978 16.5981C29.8021 16.328 29.5457 16.0945 29.5457 15.7749C29.5457 15.3697 29.8939 15.108 30.4592 15.108C30.8788 15.1172 31.2927 15.2092 31.6779 15.3788L32.1349 13.9677C32.1349 13.9677 31.7158 13.6385 30.4877 13.6385C28.7746 13.6385 27.5844 14.6353 27.5844 16.036C27.5844 16.8283 28.1364 17.438 28.8784 17.8728C29.4779 18.2265 29.6887 18.4606 29.6887 18.8297C29.6887 19.1989 29.3937 19.5069 28.8322 19.5069C28.0048 19.5069 27.2242 19.0722 27.2242 19.0722L26.7393 20.4832C26.7393 20.4832 27.4629 20.9758 28.6714 20.9758C30.4313 20.9758 31.6975 20.096 31.6975 18.5063C31.707 17.6458 31.0688 17.0464 30.3047 16.5917L30.2978 16.5981ZM37.3211 13.6301C36.455 13.6301 35.77 14.0462 35.2459 14.6887L35.2167 14.679L35.9688 10.6814H34.0095L32.1058 20.862H34.0664L34.7229 17.3814C34.98 16.0669 35.6491 15.254 36.274 15.254C36.7108 15.254 36.883 15.5537 36.883 15.9891C36.883 16.2849 36.8539 16.5788 36.7975 16.8689L36.0556 20.8524H38.0162L38.7873 16.7364C38.8715 16.31 38.9202 15.8772 38.9297 15.4437C38.9202 14.3221 38.3397 13.6455 37.3217 13.6455L37.3211 13.6301ZM43.3543 13.6301C40.9942 13.6301 39.433 15.7961 39.433 18.1963C39.433 19.7436 40.375 20.981 42.1362 20.981C44.4514 20.981 46.0195 18.8728 46.0195 16.4148C46.0195 14.9839 45.1921 13.6301 43.3574 13.6301H43.3543ZM42.392 19.46C41.7254 19.46 41.4405 18.8812 41.4405 18.1673C41.4405 17.0264 42.0191 15.1607 43.0877 15.1607C43.7822 15.1607 44.0139 15.7698 44.0139 16.3602C44.0114 17.5853 43.4315 19.46 42.3932 19.46H42.392ZM51.0334 13.6301C49.704 13.6301 48.9582 14.8057 48.9582 14.8057H48.9291L49.0449 13.7472H47.3084L46.9096 16.3872L45.5485 23.6776H47.5002L48.0434 20.7282H48.0814C48.0814 20.7282 48.4802 20.9893 49.2336 20.9893C51.5367 20.9893 53.0403 18.5918 53.0403 16.1685C53.0498 14.834 52.4616 13.6359 51.0322 13.6359L51.0334 13.6301ZM49.1583 19.4889C48.8624 19.4949 48.5745 19.3916 48.3479 19.1983L48.6721 17.3319C48.9038 16.0939 49.5381 15.2623 50.2231 15.2623C50.8226 15.2623 51.003 15.8231 51.003 16.3557C51.0062 17.6528 50.256 19.4896 49.1608 19.4896L49.1583 19.4889ZM55.8498 10.7682C55.5498 10.7663 55.2611 10.8872 55.0503 11.1039C54.8395 11.3207 54.7223 11.6146 54.7337 11.9194C54.7337 12.5072 55.1053 12.9162 55.6599 12.9162H55.689C55.8403 12.9223 55.9912 12.8969 56.1324 12.8414C56.2737 12.786 56.4022 12.7017 56.5101 12.5939C56.618 12.486 56.703 12.3568 56.7599 12.2142C56.8167 12.0717 56.8442 11.9188 56.8406 11.7651C56.8406 11.1862 56.4595 10.7682 55.8593 10.7682H55.8498ZM53.1112 20.8427H55.0718L56.4038 13.7877H54.4362M61.4 13.778H60.0307L60.0978 13.4487C60.2136 12.7715 60.6118 12.1625 61.255 12.1625C61.4681 12.1626 61.68 12.1951 61.8837 12.259L62.2622 10.7007C62.2622 10.7007 61.914 10.527 61.1961 10.527C60.4975 10.5094 59.8156 10.7459 59.2735 11.194C58.6069 11.7728 58.2922 12.605 58.134 13.4468L58.0707 13.7761H57.1571L56.871 15.2746H57.7845L56.7425 20.844H58.7101L59.7521 15.2746H61.1043L61.3702 13.7761L61.4 13.778ZM66.1214 13.7877L64.3412 18.6413H64.3121L63.8272 13.7877H61.7608L62.9415 20.2652C62.9699 20.3759 62.9564 20.4934 62.9035 20.5945C62.6471 21.0749 62.2819 21.4858 61.8374 21.7939C61.4968 22.0318 61.1252 22.2209 60.7334 22.3547L61.2765 24.0461C61.9947 23.8508 62.654 23.4776 63.1954 22.9599C64.0899 22.1084 64.9173 20.7938 65.7657 19.0047L68.1637 13.7838H66.1208L66.1214 13.7877Z" fill="black"/>
</svg>
