<svg width="72" height="32" viewBox="0 0 72 32" fill="none" xmlns="http://www.w3.org/2000/svg">
<rect width="72" height="32" fill="#F9FAFB"/>
<path d="M59.5833 12.9291C59.9968 12.9291 60.3552 12.7052 60.383 12.4303L60.7965 7.69756C60.7965 7.22096 60.251 6.85742 59.5833 6.85742C58.8943 6.85742 58.37 7.24978 58.37 7.69756L58.7835 12.4303C58.8108 12.7102 59.1698 12.9291 59.5833 12.9291ZM57.0466 14.4143C57.267 14.0502 57.2397 13.6301 57.0193 13.4622L53.187 10.7456C52.8008 10.5217 52.1941 10.801 51.8636 11.3896C51.533 11.9781 51.5881 12.6498 51.9737 12.8737L56.2196 14.8909C56.4951 14.9751 56.8535 14.7789 57.0466 14.4143ZM62.0927 14.4137C62.3131 14.7778 62.671 14.9679 62.9197 14.8571L67.1655 12.8398C67.5518 12.6159 67.6347 11.9437 67.2757 11.3557C66.9451 10.7683 66.3385 10.4873 65.9523 10.7118L62.12 13.4284C61.8996 13.6246 61.8718 14.0446 62.0927 14.4093M59.5833 18.8333C59.9968 18.8333 60.3552 19.0572 60.383 19.3321L60.7965 24.0648C60.7965 24.5414 60.251 24.905 59.5833 24.905C58.8943 24.905 58.37 24.5126 58.37 24.0648L58.7835 19.3321C58.8108 19.0523 59.1698 18.8333 59.5833 18.8333ZM62.0927 17.3537C62.3131 16.9896 62.671 16.7995 62.9197 16.9103L67.1655 18.8988C67.5518 19.1226 67.6347 19.7949 67.2757 20.3829C66.9451 20.9703 66.3385 21.2513 65.9523 21.0268L62.12 18.3102C61.8996 18.1423 61.8718 17.7228 62.0927 17.3581M57.0466 17.3592C57.267 17.7233 57.2397 18.1434 57.0193 18.3113L53.187 21.0279C52.8008 21.2518 52.1941 20.9725 51.8636 20.384C51.533 19.7954 51.5881 19.1238 51.9737 18.8999L56.2196 16.9115C56.4951 16.7995 56.8535 16.9957 57.0466 17.3548" fill="#FDBB30"/>
<path d="M39.3443 17.8656C39.3443 17.9831 39.3443 18.1238 39.298 18.2175C39.1594 18.6631 38.6979 19.0621 38.1207 19.0621C37.6298 19.0621 37.2435 18.7806 37.2435 18.1942C37.2435 17.2798 38.2364 17.0448 39.3438 17.0448L39.3443 17.8656ZM41.0987 16.2939C41.0987 14.7976 40.4752 13.4787 38.3515 13.4787C37.2604 13.4787 36.3892 13.7835 35.9272 14.065L36.2736 15.2609C36.7122 14.9794 37.381 14.7455 38.052 14.7455C39.143 14.7455 39.2985 15.3551 39.2985 15.7541V15.8483C36.9435 15.8483 35.4662 16.6686 35.4662 18.3577C35.4662 19.3896 36.2283 20.3511 37.5392 20.3511C38.3466 20.3511 39.0121 20.023 39.4322 19.5065H39.4785C39.4785 19.5065 39.7557 20.6559 41.2329 20.2104C41.1637 19.7415 41.1402 19.225 41.1402 18.6154L41.0938 16.2878M4.5 11.4387L6.27842 18.8504C6.55554 20.0696 7.08579 20.5157 8.56962 20.2109L9.51611 16.2474L10.0704 13.5734H10.0933C10.2089 14.582 10.3704 15.2914 10.5548 16.2707L11.1549 19.015C11.3622 19.9532 11.917 20.5628 13.3713 20.2342L15.6625 11.4625H13.8154L13.0298 15.262L12.4756 18.2408H12.4527L11.9453 15.3324L11.138 11.4625H9.21498L8.33777 15.2388L7.71423 18.2879H7.69133C7.52441 17.2215 7.33963 16.158 7.13707 15.098L6.44426 11.4625L4.50491 11.4393M19.1665 17.8656C19.1665 17.9831 19.1664 18.1238 19.1201 18.2175C18.9815 18.6631 18.52 19.0621 17.9428 19.0621C17.4519 19.0621 17.0656 18.7806 17.0656 18.1942C17.0656 17.2798 18.0585 17.0448 19.1659 17.0448L19.1665 17.8656ZM20.9209 16.2939C20.9209 14.7976 20.2973 13.4787 18.1736 13.4787C17.0825 13.4787 16.2113 13.7835 15.7493 14.065L16.0957 15.2609C16.5343 14.9794 17.2031 14.7455 17.8741 14.7455C18.9652 14.7455 19.1206 15.3551 19.1206 15.7541V15.8483C16.7656 15.8483 15.2883 16.6686 15.2883 18.3577C15.2883 19.3896 16.0504 20.3511 17.3613 20.3511C18.1687 20.3511 18.8342 20.023 19.2543 19.5065H19.3007C19.3007 19.5065 19.5778 20.6559 21.0551 20.2104C20.9858 19.7415 20.9623 19.225 20.9623 18.6154V16.2878M23.8241 18.3582V11.4393H22.0697V20.2109H23.8241V18.3582Z" fill="#1A75CF"/>
<path d="M46.8017 11.4389V17.9118C46.8017 18.8029 46.9632 19.4358 47.3091 19.8116C47.6091 20.1397 48.1164 20.3508 48.7405 20.3508C49.2479 20.3508 49.7792 20.2566 50.0105 20.1624L49.9876 18.7786C49.8021 18.8257 49.5948 18.849 49.3182 18.849C48.7181 18.849 48.5109 18.4499 48.5109 17.653V15.1669H50.0345V13.4783H48.5109V11.4146H46.8023M42.2537 13.6202V20.2106H44.0539V16.8334C44.0539 16.645 44.0539 16.4815 44.1003 16.3346C44.2388 15.6308 44.7696 15.1852 45.5317 15.1852C45.739 15.1852 45.9011 15.2085 46.0625 15.2323V13.4966C45.924 13.4734 45.8318 13.4495 45.6698 13.4495C45.0004 13.4495 44.2154 13.8951 43.8913 14.8333H43.845V13.5903H42.252M25.0767 13.6202V20.2106H26.8311V16.3407C26.8311 16.1523 26.854 15.9655 26.9239 15.8015C27.0624 15.4025 27.4312 14.9569 27.986 14.9569C28.7017 14.9569 29.0247 15.5665 29.0247 16.4532V20.205H30.7791V16.2881C30.7791 16.124 30.802 15.9129 30.8484 15.7488C30.9869 15.3033 31.3792 14.9508 31.9105 14.9508C32.6262 14.9508 32.9727 15.5604 32.9727 16.5923V20.2045H34.7271V16.3113C34.7271 14.2708 33.7113 13.4501 32.557 13.4501C32.1097 13.4458 31.6701 13.5675 31.287 13.802C30.9869 13.9904 30.7098 14.2708 30.4556 14.6222H30.4327C30.1556 13.9184 29.5091 13.4495 28.6543 13.4495C27.5469 13.4495 27.0613 14.0126 26.7613 14.5047H26.7384V13.6136H25.0762" fill="#1A75CF"/>
</svg>
