<svg width="33" height="32" viewBox="0 0 33 32" fill="none" xmlns="http://www.w3.org/2000/svg">
<rect width="32.4321" height="32" rx="2.7234" fill="white"/>
<rect width="11.3465" height="17.7154" rx="1.3617" transform="matrix(0.919536 -0.393006 0.357828 0.933788 12.9363 12.7339)" fill="#FF99B9"/>
<rect x="0.178893" y="0.44411" width="11.0789" height="17.6711" rx="1.02128" transform="matrix(0.922231 0.38664 -0.396733 0.917934 10.1945 2.69042)" fill="#6454D6" stroke="#6454D6" stroke-width="0.680851"/>
<ellipse cx="11.9149" cy="13.4792" rx="3.06383" ry="3.12277" fill="white"/>
<path d="M13.1266 11.3281C13.1872 11.2973 13.2577 11.3474 13.2502 11.416L13.0871 12.9215C13.0843 12.9475 13.0931 12.9735 13.1112 12.9923L14.1531 14.0735C14.2005 14.1227 14.1761 14.2055 14.11 14.2194L12.6531 14.5269C12.6281 14.5321 12.6067 14.5485 12.595 14.5715L11.9078 15.916C11.8766 15.977 11.7912 15.9782 11.7576 15.9182L11.0215 14.6027C11.0087 14.5798 10.9864 14.5639 10.9609 14.5596L9.49554 14.3092C9.42863 14.2977 9.40029 14.2156 9.44571 14.1647L10.4468 13.0435C10.4639 13.0243 10.4716 12.9983 10.4679 12.9725L10.2484 11.4726C10.2384 11.4046 10.3062 11.3527 10.3679 11.3811L11.723 12.0049C11.7465 12.0157 11.7735 12.0152 11.7965 12.0035L13.1266 11.3281Z" fill="#6454D6"/>
<path d="M22.5171 10.7604C22.5482 10.7446 22.5844 10.7703 22.5806 10.8056L22.4968 11.579C22.4953 11.5924 22.4999 11.6057 22.5092 11.6154L23.0444 12.1709C23.0688 12.1961 23.0563 12.2386 23.0223 12.2458L22.2738 12.4038C22.2609 12.4065 22.25 12.4149 22.2439 12.4267L21.8909 13.1174C21.8749 13.1488 21.831 13.1494 21.8137 13.1185L21.4356 12.4427C21.429 12.4309 21.4175 12.4228 21.4044 12.4206L20.6516 12.2919C20.6172 12.2861 20.6027 12.2438 20.626 12.2177L21.1403 11.6417C21.1491 11.6318 21.1531 11.6184 21.1511 11.6052L21.0384 10.8346C21.0333 10.7997 21.0681 10.773 21.0998 10.7876L21.796 11.1081C21.8081 11.1136 21.8219 11.1134 21.8337 11.1074L22.5171 10.7604Z" fill="white"/>
<path d="M20.9951 24.9286C21.0262 24.9128 21.0624 24.9385 21.0586 24.9738L20.9748 25.7472C20.9733 25.7606 20.9779 25.7739 20.9872 25.7836L21.5225 26.3391C21.5468 26.3644 21.5343 26.4069 21.5003 26.414L20.7518 26.572C20.739 26.5747 20.728 26.5831 20.722 26.5949L20.3689 27.2856C20.3529 27.317 20.309 27.3176 20.2918 27.2868L19.9136 26.6109C19.907 26.5992 19.8956 26.591 19.8825 26.5888L19.1296 26.4601C19.0952 26.4543 19.0807 26.412 19.104 26.3859L19.6183 25.8099C19.6271 25.8 19.6311 25.7867 19.6292 25.7734L19.5164 25.0028C19.5113 24.9679 19.5461 24.9413 19.5778 24.9558L20.274 25.2763C20.2861 25.2819 20.3 25.2816 20.3118 25.2756L20.9951 24.9286Z" fill="white"/>
</svg>
